<svg id="レイヤー_1" data-name="レイヤー 1" xmlns="http://www.w3.org/2000/svg" viewBox="0 0 480 128"><defs><style>.cls-1{fill:#666;}</style></defs><title>アートボード 1</title><path class="cls-1" d="M48.71,58.68q-2,0-4.85-2.88a23.65,23.65,0,0,1-6.12-12,66.42,66.42,0,0,1-1.16-13.75l.11-5.91a8.91,8.91,0,0,0-.7-3.87,11.28,11.28,0,0,0-2.46-3.06q-.67-.63-.67-.95,0-.63,1-.63,1.62,0,4.32,2.32,3.38,2.85,3.38,5.24a10.1,10.1,0,0,1-.67,3.09q-.81,2.39-.81,8.51Q40.1,43,42,47.14,43.9,51,45.59,51q.81,0,1.44-1.16,3-5.31,7.88-13.08A1.41,1.41,0,0,1,56.1,36q.81,0,.81.74A3.24,3.24,0,0,1,56.48,38a70.5,70.5,0,0,0-5.7,12.23,13.12,13.12,0,0,0-.74,2.67,4.26,4.26,0,0,0,.28,1.65,5.29,5.29,0,0,1,.46,2.25Q50.79,58.68,48.71,58.68ZM71,24q0-.53.81-.53a1.56,1.56,0,0,1,.7.18A26.81,26.81,0,0,1,84,32.55a18.34,18.34,0,0,1,4,11.07q0,4.75-2.74,4.75a2.15,2.15,0,0,1-1.86-.95A5,5,0,0,0,81,45.7a23.59,23.59,0,0,0-4.68-.91q-.95-.11-.95-.95,0-.53,1.09-.63,4.22-.49,5.48-.67a1.18,1.18,0,0,0,1.09-1.3q0-3.9-3.73-9.07a23.83,23.83,0,0,0-7.59-7A1.24,1.24,0,0,1,71,24Z"/><path class="cls-1" d="M133.3,21a76.26,76.26,0,0,0,3.8,10.09,43.38,43.38,0,0,0,7.07-3.59q.42-.32.42-.53a.81.81,0,0,0-.28-.56,26.65,26.65,0,0,0-2.88-2.67q-.7-.53-.7-.95t.63-.49a3,3,0,0,1,1.09.35,18.91,18.91,0,0,0,2.74,1.3,6.44,6.44,0,0,0,2.07.53,6.51,6.51,0,0,0,1-.11l1-.11a2.4,2.4,0,0,1,1.55.39,1.16,1.16,0,0,1,.6.91,2.44,2.44,0,0,1-1.16,2.07A53.33,53.33,0,0,1,138.47,34a68.09,68.09,0,0,0,6.64,10.37,8.37,8.37,0,0,1,2.07,4.89q0,3-1.72,3a2,2,0,0,1-1.58-.7,9.37,9.37,0,0,0-5.34-3,48.83,48.83,0,0,0-10.2-1.23,19,19,0,0,0-8,1.48q-3.8,1.76-3.8,5.34,0,4.57,6.82,6.36a36.18,36.18,0,0,0,9,1l4.85-.21q3.66,0,3.66,2.43a2,2,0,0,1-1.48,2.07,18.88,18.88,0,0,1-4.71.39,33.26,33.26,0,0,1-14.24-2.78q-6.64-3.13-6.64-8.82t6.15-8.09a27.33,27.33,0,0,1,10.48-1.76,66.4,66.4,0,0,1,11.14.81Q139,41.31,135.9,35a40.44,40.44,0,0,1-13.25,2.57q-6.79,0-6.79-4.61a6.87,6.87,0,0,1,1-3.37q.49-.88.91-.88.81,0,.81.56a3.35,3.35,0,0,1-.21.95,9,9,0,0,0-.21,2.07q0,2.11,3.66,2.11A40,40,0,0,0,134.46,32q-.63-1.48-3.83-10.09-7.77,2.6-12.3,2.6a11.76,11.76,0,0,1-8.16-2.74,1.59,1.59,0,0,1-.56-1.09q0-.77.63-.77a3.29,3.29,0,0,1,.95.28,13.6,13.6,0,0,0,5.84,1.3q5,0,12.59-2.74-.42-1.37-1.3-3.94-.81-2.39-1.2-3.59-.91-2.6-4.25-2.6a7,7,0,0,1-.81,0h-.14q-.63,0-.63-.6a1.24,1.24,0,0,1,.56-.91,4.1,4.1,0,0,1,2.6-.91,14.73,14.73,0,0,1,5.34.95Q132,7.95,132,9.07a4.61,4.61,0,0,1-.39,1.58,2.61,2.61,0,0,0-.18.95,16.48,16.48,0,0,0,.25,2.07q.39,2.39.74,4a37.77,37.77,0,0,0,4.68-2.07,14.1,14.1,0,0,0,2.11-1.3,8.19,8.19,0,0,1,2.6-1.51,5.71,5.71,0,0,1,2-.49,1.89,1.89,0,0,1,1.44.6,1.68,1.68,0,0,1,.42,1.13,2,2,0,0,1-1.16,2A80.21,80.21,0,0,1,133.3,21Z"/><path class="cls-1" d="M197.74,47.29a59.34,59.34,0,0,0-.28,6q0,9.53,9.14,9.53A10.88,10.88,0,0,0,215,59.24a11.37,11.37,0,0,0,2.81-7.84q0-8.93-8.72-17.65a1.57,1.57,0,0,1-.56-1.05q0-.81,1-.81a3.21,3.21,0,0,1,1.05.56,28.68,28.68,0,0,1,8.68,9.39,20.22,20.22,0,0,1,3,10.16,12.51,12.51,0,0,1-5.38,10.58,16.57,16.57,0,0,1-10.05,3.16q-5.73,0-9-3.34t-3.3-9.7a55.84,55.84,0,0,1,.28-5.84q-5.38-1.76-7.52-3.94a8.46,8.46,0,0,1-2.25-6.15q0-4.89,6.26-10.05a14.27,14.27,0,0,1-5.62-3.9,6.54,6.54,0,0,1-1.93-4q0-.88.56-.88t1.16,1A12.46,12.46,0,0,0,190,22.61a12.51,12.51,0,0,0,5,1.44q3,.25,3.55,1.93,1.13-5.73,1.65-9.28,0-.49.14-1.3a19,19,0,0,0,.21-2.11,5,5,0,0,0-.74-3.09,3.91,3.91,0,0,0-2.5-1.3Q196,8.65,196,8.19t1-1a4.41,4.41,0,0,1,1.79-.39A7.83,7.83,0,0,1,204,9.21q2.25,2,2.25,3.87a1.93,1.93,0,0,1-.95,1.79,4.87,4.87,0,0,0-1.37,2.74q-3.24,13.11-5.38,25.88a37.65,37.65,0,0,0,3.87.21,15.48,15.48,0,0,0,1.55-.07q3.38-.14,3.38,1.79a1.85,1.85,0,0,1-1.65,2,13.58,13.58,0,0,1-3.23.28A29.85,29.85,0,0,1,197.74,47.29ZM195.6,43q1.37-9,2.6-15.54a2.89,2.89,0,0,1-2.25.67,7.89,7.89,0,0,0-4.11,1.51q-4.68,3.27-4.68,6.82Q187.16,41.52,195.6,43Z"/><path class="cls-1" d="M275,17.86a9.63,9.63,0,0,1,1.44,5.31,25.12,25.12,0,0,1-1.37,7.07,65,65,0,0,1-10.37,19.09q-3.94,4.82-7.1,4.82t-5.77-3.76a17.4,17.4,0,0,1-2.53-9.49A23.64,23.64,0,0,1,257.12,23q8.3-7.77,20.88-7.77,11.6,0,18.6,7.17a21,21,0,0,1,6,15.29q0,11.29-10.93,17.86a41.85,41.85,0,0,1-19.62,5.63h-.18q-1.05,0-1.05-.81t1.23-1.16q11.46-2,18.39-7.63,7.42-6.08,7.42-15.12,0-8.65-6.08-13.85a20.86,20.86,0,0,0-12.94-4.78q-.91-.07-1.93-.07T275,17.86Zm-2.21.28a25.32,25.32,0,0,0-14.41,7.28,19.6,19.6,0,0,0-5.84,14.24,15.64,15.64,0,0,0,1.72,7.28q1.34,2.46,3.37,2.46t5.06-4.18a64.18,64.18,0,0,0,9.91-18.88,15.93,15.93,0,0,0,1-5.17A4.24,4.24,0,0,0,272.77,18.14Z"/><path class="cls-1" d="M342.23,22.08a63.42,63.42,0,0,0,7.28-2.88A9.94,9.94,0,0,1,353,18a2.44,2.44,0,0,1,1.55.49,1.6,1.6,0,0,1,.67,1.3q0,1.48-2.53,2.46-5.59,2.07-11.78,3.76-9.32,26.09-13.32,35.3a2.54,2.54,0,0,1-2.32,1.79,2.05,2.05,0,0,1-1.65-.7,2.86,2.86,0,0,1-.49-1.62,3.88,3.88,0,0,1,.35-1.44A288.53,288.53,0,0,0,337.28,27a34.23,34.23,0,0,1-7.7,1.09,11.46,11.46,0,0,1-7-2q-2.07-1.48-2.07-2.67a.71.71,0,0,1,.81-.81,3.61,3.61,0,0,1,1.34.67,10.8,10.8,0,0,0,6.15,1.65A34.71,34.71,0,0,0,338.58,23q1.27-3.55,2-6.43a15.7,15.7,0,0,0,.7-3.73q0-2.53-3.45-3.27-1.23-.25-1.23-.7t1-.95a7.24,7.24,0,0,1,1.93-.35,8.86,8.86,0,0,1,3,.77,11.38,11.38,0,0,1,3,1.69,2.73,2.73,0,0,1,1.23,2.07,2.44,2.44,0,0,1-1,2,6.83,6.83,0,0,0-1.51,2.43Q344,17.4,342.23,22.08Zm6,26.58a12.89,12.89,0,0,0-.46,3.52,6.25,6.25,0,0,0,3.66,5.91q2.88,1.51,9.6,1.51a29.74,29.74,0,0,0,6.61-.7,11.5,11.5,0,0,1,3-.42,6.09,6.09,0,0,1,2.21.42,2.06,2.06,0,0,1,1.44,2,1.8,1.8,0,0,1-.7,1.58,5.59,5.59,0,0,1-2.39.74,55.9,55.9,0,0,1-7.84.49q-9,0-13.32-2.67a9.53,9.53,0,0,1-3.41-3.55,8,8,0,0,1-1.12-4,12.85,12.85,0,0,1,1.3-5.31q.56-1.3,1.3-1.3.49,0,.49.56A12.67,12.67,0,0,1,348.21,48.66ZM362,32.87q.42-.35.42-.53t-.49-.21q-.49,0-1.12,0a24,24,0,0,0-11.5,2.5,2,2,0,0,1-.77.18q-.6,0-.6-.49a1.31,1.31,0,0,1,.56-1,22.25,22.25,0,0,1,13.61-4.18q.56,0,1.23,0a18.76,18.76,0,0,1,6.79,1.41q2.11,1,2,2.64a1.41,1.41,0,0,1-1.72,1.51,4.75,4.75,0,0,1-1.58-.35,7.4,7.4,0,0,0-1.93-.42h-.35a5.9,5.9,0,0,0-2.46.67,74.76,74.76,0,0,0-7.28,4.61,2.42,2.42,0,0,1-1.16.35q-.49,0-.49-.6,0-.28.67-.91Q356.68,37.23,362,32.87Z"/><path class="cls-1" d="M408.82,25.91a43.59,43.59,0,0,1-6.19.49,10.79,10.79,0,0,1-5.31-1.16,11,11,0,0,1-3.41-3.3,1.47,1.47,0,0,1-.28-.81q0-.7.63-.7a1.11,1.11,0,0,1,.81.35,8.42,8.42,0,0,0,6.47,2.6,39.83,39.83,0,0,0,8-1,71,71,0,0,0,1.05-10.16q.11-2.35-3.8-2.71-1.16-.11-1.16-.6a1.3,1.3,0,0,1,.7-1.09,6.48,6.48,0,0,1,3.2-.63,8.82,8.82,0,0,1,4.54,1.48q2.14,1.3,2.14,2.57a2.5,2.5,0,0,1-.7,1.79,6.57,6.57,0,0,0-1.16,2.43q-.6,1.93-1.44,6.19,5.66-1.48,8.16-3.37a4.5,4.5,0,0,1,3-1q3.38,0,3.38,1.93,0,1.48-2.6,2.46a79.27,79.27,0,0,1-12.76,3.55q-.7,3.59-1.69,9.18-1.16,6.36-1.48,8,11.32-7.84,19-7.84,6.68,0,10.76,3.34a10.28,10.28,0,0,1,3.8,8.3q0,8.82-12.55,14.27a64.13,64.13,0,0,1-21.16,4.82h-.21q-1.23,0-1.23-1,0-.7,1.23-.84A61.08,61.08,0,0,0,428.86,57a19.73,19.73,0,0,0,6.68-5.48,10.72,10.72,0,0,0,2.39-6.61,7.15,7.15,0,0,0-3-6.22,11.33,11.33,0,0,0-6.71-1.83q-8.51,0-17.19,9a12,12,0,0,0-2.46,3.59,1.61,1.61,0,0,1-1.65,1.09,2.14,2.14,0,0,1-1.83-1.37,6.74,6.74,0,0,1-.7-3.23,4.72,4.72,0,0,1,.42-1.93,15.66,15.66,0,0,0,.95-2.39Q407,36.56,408.82,25.91Z"/><path class="cls-1" d="M78.42,106.49v1.68H70.18v-1.68Z"/><path class="cls-1" d="M95.76,93.87h7q3.94,0,5.83,1.77a6.15,6.15,0,0,1-.6,8.88,9,9,0,0,1-5.41,1.45H97.74v9.77h-2Zm2,1.66v8.82h4.78q5.67,0,5.67-4.47t-5.49-4.35Z"/><path class="cls-1" d="M123.53,100.37l-.15,1.86a4.07,4.07,0,0,0-2.93,1.36,8,8,0,0,0-1.9,3.35v8.79h-1.83v-15h1.77v3.9a7.43,7.43,0,0,1,2.37-3.35A4.4,4.4,0,0,1,123.53,100.37Z"/><path class="cls-1" d="M140.88,108.38H130a7,7,0,0,0,1.52,4.85,4.19,4.19,0,0,0,3.25,1.41,4.12,4.12,0,0,0,4.25-3.22l1.74.66a6.45,6.45,0,0,1-11,1.64,8.73,8.73,0,0,1-1.61-5.45,8.47,8.47,0,0,1,2.07-6,6,6,0,0,1,9.08.42,8.37,8.37,0,0,1,1.57,5.23ZM139,107a6.16,6.16,0,0,0-1.52-4,3.86,3.86,0,0,0-2.89-1.16,4,4,0,0,0-3.28,1.57,6.17,6.17,0,0,0-1.27,3.54Z"/><path class="cls-1" d="M150,95.36v5.38h3.78v1.49H150V112q0,2.65,2.23,2.65a8.9,8.9,0,0,0,1.95-.22l-.13,1.52a12.62,12.62,0,0,1-2.12.16q-3.78,0-3.78-3.75V102.23h-2.58v-1.49h2.58v-5Z"/><path class="cls-1" d="M162,95.36v5.38h3.78v1.49H162V112q0,2.65,2.23,2.65a8.9,8.9,0,0,0,1.95-.22l-.13,1.52a12.62,12.62,0,0,1-2.12.16q-3.78,0-3.78-3.75V102.23H157.6v-1.49h2.58v-5Z"/><path class="cls-1" d="M182.09,100.74l-5.67,15.78a7.87,7.87,0,0,1-2.37,3.76,4.72,4.72,0,0,1-2.94.89,7.07,7.07,0,0,1-1.35-.12l-.15-1.63a7,7,0,0,0,1.49.18,3,3,0,0,0,2.24-.89,7,7,0,0,0,1.42-2.52l.28-.72-5.35-14.74h2l3.25,9.67q.29.89.89,3H176q.22-.63.54-1.67l.45-1.42,3.18-9.59Z"/><path class="cls-1" d="M200.17,93.87V114h11.13v1.71H198.2V93.87Z"/><path class="cls-1" d="M219.53,94.7v2.8h-2.75V94.7Zm-.44,6v15h-1.86v-15Z"/><path class="cls-1" d="M229.21,95.36v5.38H233v1.49h-3.78V112q0,2.65,2.23,2.65a8.9,8.9,0,0,0,1.95-.22l-.13,1.52a12.62,12.62,0,0,1-2.12.16q-3.78,0-3.78-3.75V102.23h-2.58v-1.49h2.58v-5Z"/><path class="cls-1" d="M241.27,95.36v5.38H245v1.49h-3.78V112q0,2.65,2.23,2.65a8.9,8.9,0,0,0,1.95-.22l-.13,1.52a12.62,12.62,0,0,1-2.12.16q-3.78,0-3.78-3.75V102.23h-2.58v-1.49h2.58v-5Z"/><path class="cls-1" d="M252.58,93.47v22.27h-1.86V93.47Z"/><path class="cls-1" d="M271.83,108.38H261a7,7,0,0,0,1.52,4.85,4.19,4.19,0,0,0,3.25,1.41,4.12,4.12,0,0,0,4.25-3.22l1.74.66a6.45,6.45,0,0,1-11,1.64,8.73,8.73,0,0,1-1.61-5.45,8.47,8.47,0,0,1,2.07-6,6,6,0,0,1,9.08.42,8.37,8.37,0,0,1,1.57,5.23ZM270,107a6.16,6.16,0,0,0-1.52-4,3.86,3.86,0,0,0-2.89-1.16,4,4,0,0,0-3.28,1.57A6.17,6.17,0,0,0,261,107Z"/><path class="cls-1" d="M302.83,93.87v1.71h-7v20.16h-2V95.58h-7V93.87Z"/><path class="cls-1" d="M310.61,93.47v10q2.55-3.09,5.42-3.09a4.08,4.08,0,0,1,3.18,1.27,4.19,4.19,0,0,1,1,2.93v11.16h-1.89V105.38q0-3.33-2.78-3.33-2.58,0-5,3.12v10.56h-1.86V93.47Z"/><path class="cls-1" d="M330,94.7v2.8H327.2V94.7Zm-.44,6v15h-1.86v-15Z"/><path class="cls-1" d="M338.82,100.74v2.78q2.52-3.15,5.48-3.15a4,4,0,0,1,3.18,1.27,4.23,4.23,0,0,1,1,3v11.13h-1.89V105.38q0-3.33-2.78-3.33-2.61,0-5,3.12v10.56H337v-15Z"/><path class="cls-1" d="M368.07,98.91l-.15,1.71a5,5,0,0,0-1.95.32,4.26,4.26,0,0,0-1.23.88,4.25,4.25,0,0,1,1.58,3.5,4.55,4.55,0,0,1-1.76,3.79,5.88,5.88,0,0,1-3.74,1.16,6.5,6.5,0,0,1-2.49-.47q-1.49.83-1.49,1.79a1.1,1.1,0,0,0,.64,1.1,9.88,9.88,0,0,0,2.53.47l2.94.29a7.73,7.73,0,0,1,4.22,1.36,2.76,2.76,0,0,1,.88,2.18,3.48,3.48,0,0,1-2,3.12,10.25,10.25,0,0,1-5,1.05,9.5,9.5,0,0,1-5.13-1.14,2.94,2.94,0,0,1-1.51-2.55,2.75,2.75,0,0,1,.92-2,5.38,5.38,0,0,1,2.14-1.22q-2.29-.5-2.29-2.2,0-1.48,2.08-2.9a4.41,4.41,0,0,1-1.89-3.79,4.57,4.57,0,0,1,1.82-3.79,6.31,6.31,0,0,1,6.55-.5,5,5,0,0,1,1.95-1.71A5.72,5.72,0,0,1,368.07,98.91Zm-9,15.69q-2.93.81-2.93,2.65a2.21,2.21,0,0,0,1.57,2.05,8.73,8.73,0,0,0,3.41.56,7.93,7.93,0,0,0,4.09-.86,2.09,2.09,0,0,0,1.16-1.8,1.62,1.62,0,0,0-.85-1.49,8,8,0,0,0-3-.73Zm1.8-12.91a3.65,3.65,0,0,0-2.74,1.08,3.55,3.55,0,0,0-1,2.58,3.42,3.42,0,0,0,1.22,2.78,3.77,3.77,0,0,0,2.48.82,3.65,3.65,0,0,0,2.74-1.07,3.84,3.84,0,0,0-.26-5.36A3.7,3.7,0,0,0,360.86,101.69Z"/><path class="cls-1" d="M383.79,103.92l-1.8.63a3.52,3.52,0,0,0-3.66-2.71,4.07,4.07,0,0,0-2.62.75,2,2,0,0,0-.79,1.66,2.19,2.19,0,0,0,.79,1.86,6.69,6.69,0,0,0,2.5.94l1.2.26a8,8,0,0,1,3.82,1.7,3.65,3.65,0,0,1,1,2.7,3.87,3.87,0,0,1-1.6,3.27,6.64,6.64,0,0,1-4.1,1.14q-4.53,0-5.92-3.63l1.8-.69a4,4,0,0,0,4.15,2.86,4.32,4.32,0,0,0,3.08-1,2.42,2.42,0,0,0,.76-1.82,2.39,2.39,0,0,0-.79-2,7.68,7.68,0,0,0-2.78-1l-1.2-.28a6.91,6.91,0,0,1-3.63-1.7,3.92,3.92,0,0,1,.67-5.45,6.06,6.06,0,0,1,3.74-1A5.3,5.3,0,0,1,383.79,103.92Z"/><path class="cls-1" d="M408.32,106.49v1.68h-8.25v-1.68Z"/></svg>